<?xml version="1.0" encoding="UTF-8"?>
<svg width="200px" height="200px" viewBox="0 0 200 200" version="1.1" xmlns="http://www.w3.org/2000/svg">
    <g stroke="none" stroke-width="1" fill="none" fill-rule="evenodd">
        <rect fill="#FFF5E6" x="0" y="0" width="200" height="200" rx="100"></rect>
        <g transform="translate(40, 40)">
            <!-- クリップボード背景 -->
            <rect fill="#FFFFFF" x="10" y="5" width="100" height="120" rx="8"></rect>
            <!-- クリップボード枠 -->
            <rect stroke="#FF9BB3" stroke-width="4" x="10" y="5" width="100" height="120" rx="8"></rect>
            <!-- クリップボード上部クリップ -->
            <rect fill="#FF9BB3" x="45" y="0" width="30" height="12" rx="4"></rect>
            <!-- 質問項目ライン1 -->
            <rect fill="#FFD1DC" x="25" y="30" width="70" height="4" rx="2"></rect>
            <circle fill="#FF9BB3" cx="20" cy="32" r="5"></circle>
            <!-- 質問項目ライン2 -->
            <rect fill="#FFD1DC" x="25" y="50" width="70" height="4" rx="2"></rect>
            <circle fill="#FF9BB3" cx="20" cy="52" r="5"></circle>
            <!-- 質問項目ライン3 -->
            <rect fill="#FFD1DC" x="25" y="70" width="70" height="4" rx="2"></rect>
            <circle fill="#FF9BB3" cx="20" cy="72" r="5"></circle>
            <!-- 質問項目ライン4 -->
            <rect fill="#FFD1DC" x="25" y="90" width="70" height="4" rx="2"></rect>
            <circle fill="#FF9BB3" cx="20" cy="92" r="5"></circle>
            <!-- ペン -->
            <g transform="translate(80, 100) rotate(-45)">
                <rect fill="#5A4A42" x="0" y="0" width="30" height="6" rx="2"></rect>
                <polygon fill="#FF9BB3" points="0,0 0,6 -10,3"></polygon>
            </g>
        </g>
    </g>
</svg>
